<?xml version="1.0" encoding="utf-8"?>
<!-- Generator: Adobe Illustrator 25.2.0, SVG Export Plug-In . SVG Version: 6.00 Build 0)  -->
<svg version="1.1" id="Layer_1" xmlns="http://www.w3.org/2000/svg" xmlns:xlink="http://www.w3.org/1999/xlink" x="0px" y="0px"
	 width="83.9px" height="84px" viewBox="0 0 83.9 84" style="enable-background:new 0 0 83.9 84;" xml:space="preserve">
<path d="M83.9,6.8c0-5.9-0.8-6.8-6.5-6.8C53.8,0.1,30.2,0.1,6.6,0C2,0,0,1.5,0,6.3c0.1,23.8,0.1,47.5,0,71.3C0,82.5,1.9,84,6.6,84
	c23.6-0.1,47.2-0.1,70.8-0.1c5.7,0,6.5-0.8,6.5-6.8c0-11.6,0-23.3,0-34.9C83.9,30.4,83.9,18.6,83.9,6.8z M76.4,80
	c-23-0.1-45.9-0.1-68.9,0C4.7,80,4,79.2,4,76.4c0.1-23,0.1-45.9,0-68.9C4,4.7,4.7,4,7.6,4c23,0.1,45.9,0.1,68.9,0
	C79.3,4,80,4.7,80,7.6c-0.2,11.6-0.1,23.3-0.1,34.9c0,11.3-0.1,22.6,0.1,33.9C80,79.3,79.2,80,76.4,80z"/>
<path d="M69.9,16.7C56.3,30.4,43.5,43.2,30.7,56.1c-0.8,0.8-1.6,1.7-2.5,2.5c-1,0.9-2,2.1-3.4,0.9c-1.7-1.5-0.4-2.7,0.7-3.7
	c8.7-8.7,17.4-17.4,26.1-26.1c4.9-4.9,9.8-9.8,15.6-15.5c-8.3,0-15.5,0-22.8,0c-1.7,0-4.3,0.6-4.3-2c0-2.6,2.6-1.9,4.3-2
	C53,10,61.5,10.1,70,10C73,9.9,74,11,74,14.1c-0.1,8.6,0,17.3-0.1,25.9c0,1.6,0.4,3.8-2,3.8c-2.4,0-2-2.2-2-3.8
	C69.9,32.7,69.9,25.4,69.9,16.7z"/>
</svg>
